<svg width="80" height="50" viewBox="0 0 80 50" fill="none" xmlns="http://www.w3.org/2000/svg">
<path fill-rule="evenodd" clip-rule="evenodd" d="M10.5967 10.2161C10.5288 9.06812 11.6589 8.22617 12.7395 8.61959L26.0205 13.455C19.8568 16.1064 15.0855 20.5355 11.5068 25.5031C11.4993 25.4533 11.494 25.4026 11.4909 25.3508L10.5967 10.2161ZM67.2496 26.1405C67.3975 25.9178 67.4923 25.6508 67.5101 25.3508L68.4043 10.2161C68.4721 9.06812 67.3421 8.22617 66.2615 8.61959L52.4569 13.6456C58.7144 16.4322 63.5702 21.0342 67.2496 26.1405Z" fill="#867CF4"/>
<path d="M39.0022 10.8687C18.7951 10.8687 8.37654 27.2714 4.46788 39.728C3.30946 43.4198 6.27976 46.8388 10.149 46.8388H68.4842C72.5503 46.8388 75.5688 43.0864 74.1553 39.2739C69.5587 26.8767 58.9646 10.8687 39.0022 10.8687Z" stroke="#867CF4" stroke-width="1.59867" stroke-linecap="round"/>
<path d="M38.285 38.4758C38.9187 39.4166 40.3032 39.4166 40.9369 38.4758L42.7783 35.7421C43.4935 34.6802 42.7327 33.2503 41.4524 33.2503H37.7696C36.4893 33.2503 35.7284 34.6802 36.4437 35.7421L38.285 38.4758Z" fill="#867CF4"/>
<path d="M34.0156 11.668V23.658" stroke="#867CF4" stroke-width="1.59867" stroke-linecap="round"/>
<path d="M40.4102 11.668V26.056" stroke="#867CF4" stroke-width="1.59867" stroke-linecap="round"/>
<path d="M46.8047 11.668V23.658" stroke="#867CF4" stroke-width="1.59867" stroke-linecap="round"/>
</svg>
